# xmcd CD database file
#
# Track frame offsets:
#	150
#	18869
#	46464
#	75990
#	101363
#	120331
#	139088
#	168998
#	211166
#	230904
#
# Disc length: 3382 seconds
#
# Revision: 0
# Processed by: cddbd v1.5.2PL0 Copyright (c) Steve Scherf et al.
# Submitted via: CDex 1.51
#
DISCID=740d340a
DTITLE=Randy Sabien - Rhythm and Bows
DYEAR=2007
DGENRE=Jazz
TTITLE0=Money From A Stanger
TTITLE1=Cozy's Beat
TTITLE2=Infra Rae
TTITLE3=Stella Blue
TTITLE4=Downhill From Diddley Squat
TTITLE5=Clyde-O-Scope
TTITLE6=New Speedway Boogie
TTITLE7=Nature Boy
TTITLE8=Cliffs of Dover
TTITLE9=Whispering Pines
EXTD=YEAR: 2007
EXTT0=
EXTT1=
EXTT2=
EXTT3=
EXTT4=
EXTT5=
EXTT6=
EXTT7=
EXTT8=
EXTT9=
PLAYORDER=
